<?xml version="1.0" encoding="utf-8"?>
<!-- Generator: Adobe Illustrator 16.0.0, SVG Export Plug-In . SVG Version: 6.00 Build 0)  -->
<!DOCTYPE svg PUBLIC "-//W3C//DTD SVG 1.1//EN" "http://www.w3.org/Graphics/SVG/1.1/DTD/svg11.dtd">
<svg version="1.1" id="Layer_1" xmlns="http://www.w3.org/2000/svg" xmlns:xlink="http://www.w3.org/1999/xlink" x="0px" y="0px"
	 width="15px" height="14.997px" viewBox="0 0 15 14.997" enable-background="new 0 0 15 14.997" xml:space="preserve">
<path fill="#B8C3AE" d="M7.501,0C3.359,0,0,3.354,0,7.498c0,4.141,3.359,7.499,7.501,7.499S15,11.639,15,7.498
	C15,3.354,11.643,0,7.501,0z M7.501,9.862c0.735,0,1.444-0.333,1.96-1.046l1.16,0.76c-0.795,1.136-1.945,1.67-3.12,1.67
	c-2.069,0-3.749-1.678-3.749-3.748c0-2.066,1.68-3.752,3.749-3.752c1.163,0,2.321,0.528,3.12,1.67l-1.16,0.761
	C8.94,5.458,8.232,5.134,7.501,5.134c-1.302,0-2.364,1.06-2.364,2.364C5.137,8.801,6.199,9.862,7.501,9.862z"/>
</svg>
