<?xml version="1.0" encoding="utf-8"?>
<!-- Generator: Adobe Illustrator 16.0.0, SVG Export Plug-In . SVG Version: 6.00 Build 0)  -->
<!DOCTYPE svg PUBLIC "-//W3C//DTD SVG 1.1//EN" "http://www.w3.org/Graphics/SVG/1.1/DTD/svg11.dtd">
<svg version="1.1" id="Layer_1" xmlns="http://www.w3.org/2000/svg" xmlns:xlink="http://www.w3.org/1999/xlink" x="0px" y="0px"
	 width="1020px" height="1020px" viewBox="-464.72 -465.319 1020 1020" enable-background="new -464.72 -465.319 1020 1020"
	 xml:space="preserve">
<g>
	<g id="HANDMADE">
		<path display="none" fill="none" stroke="#4F868C" stroke-width="3" stroke-miterlimit="10" d="M45.28-448.008
			c265.251,0,480.272,222.509,480.272,497.001c0,274.491-215.021,497-480.272,497c-265.24,0-480.261-222.509-480.261-497
			C-434.982-225.499-219.96-448.008,45.28-448.008z"/>
		<g>
			<path fill="#4F868C" d="M-186.073,51.838c-6.197,0-11.248,5.018-11.248,11.237c0,6.197,5.05,11.226,11.248,11.226
				c6.187,0,11.226-5.028,11.226-11.226C-174.847,56.855-179.887,51.838-186.073,51.838z"/>
			<path fill="#4F868C" d="M273.975,90.775l-105.873,36.412c0.452-2.603,0.706-5.271,0.706-7.962
				c0-24.767-20.158-44.925-44.926-44.925H51.157c-1.93,0-3.827-0.496-5.514-1.456l-59.327-33.368
				c-11.733-6.617-25.065-10.112-38.563-10.112h-79.628c-4.631-13.067-17.114-22.462-31.77-22.462h-67.388
				c-6.197,0-11.226,5.028-11.226,11.226v202.164c0,6.197,5.029,11.226,11.226,11.226h67.388c14.325,0,26.587-8.976,31.45-21.613
				c12.715,1.588,27.436,5.337,36.666,10.895l58.742,35.232c22.242,13.376,47.737,20.412,73.685,20.412
				c20.566,0,40.492-4.323,59.239-12.836l209.606-92.288c23.224-9.428,34.681-37.271,21.415-61.83
				C317.422,91.426,294.563,83.386,273.975,90.775z M-152.396,197.894c-0.011,6.176-5.051,11.171-11.237,11.171h-56.151V29.364
				h56.151c6.197,0,11.237,5.04,11.237,11.237V197.894z M297.242,150.554c-0.133,0.055-0.242,0.099-0.364,0.144
				c0,0-209.927,92.441-209.971,92.464c-15.824,7.2-32.641,10.851-49.998,10.851c-21.889,0-43.359-5.955-62.117-17.225
				l-58.743-35.222c-12.582-7.542-30.579-12.141-45.984-13.993V51.838h77.688c9.638,0,19.154,2.492,27.535,7.223l59.338,33.369
				c5.028,2.823,10.763,4.334,16.53,4.334h72.735c12.396,0,22.463,10.078,22.463,22.462c0,12.351-10.09,22.452-22.463,22.452H9.717
				c-6.197,0-11.237,5.05-11.237,11.247c0,6.198,5.04,11.227,11.237,11.227h114.176c7.355,0,14.623-1.842,21.04-5.271
				c0,0,136.508-46.91,136.585-46.932c10.057-3.64,21.426-0.022,25.892,8.226C314.103,132.557,308.578,146.01,297.242,150.554z"/>
			<path fill="#4F868C" d="M84.867,29.883c2.106,1.831,4.742,2.746,7.345,2.746c2.635,0,5.249-0.915,7.366-2.746
				c91.625-79.408,148.316-119.613,148.316-182.072c0-49.402-34.979-90.358-84.127-90.358c-32.255,0-56.989,18.614-72.901,46.535
				c-15.868-27.866-40.569-46.535-72.891-46.535c-37.603,0-69.064,24.393-80.125,62.106c-1.742,5.965,1.666,12.207,7.62,13.949
				c5.955,1.743,12.196-1.665,13.927-7.62c8.193-27.91,31.174-45.962,58.577-45.962c32.057,0,54.52,28.461,62.062,54.949
				c1.346,4.863,5.79,8.226,10.829,8.226c5.051,0,9.461-3.363,10.829-8.226c0.143-0.541,15.758-54.949,62.072-54.949
				c35.145,0,61.665,29.178,61.665,67.906c0,49.954-48.84,85.979-133.232,158.727C40.791-37.594-0.043-68.679-23.255-99.071
				c-3.771-4.929-10.818-5.877-15.736-2.117c-4.94,3.771-5.878,10.818-2.128,15.736C-14.951-51.179,29.224-18.34,84.867,29.883z"/>
			<path fill="#4F868C" d="M-52.445-143.588c-6.186,0-11.226,5.018-11.226,11.226c0,6.198,5.04,11.215,11.226,11.215
				c6.198,0,11.237-5.017,11.237-11.215C-41.208-138.571-46.236-143.588-52.445-143.588z"/>
		</g>
	</g>
	
		<rect x="-454.72" y="-455.319" fill="none" stroke="#4F868C" stroke-width="20" stroke-miterlimit="10" width="1000" height="1000"/>
</g>
</svg>
