<?xml version="1.0" encoding="utf-8"?>
<!-- Generator: Adobe Illustrator 16.0.0, SVG Export Plug-In . SVG Version: 6.00 Build 0)  -->
<!DOCTYPE svg PUBLIC "-//W3C//DTD SVG 1.1//EN" "http://www.w3.org/Graphics/SVG/1.1/DTD/svg11.dtd">
<svg version="1.1" id="Layer_1" xmlns="http://www.w3.org/2000/svg" xmlns:xlink="http://www.w3.org/1999/xlink" x="0px" y="0px"
	 width="30px" height="30px" viewBox="0 0 30 30" enable-background="new 0 0 30 30" xml:space="preserve">
<g>
	<path fill="#B8C3AE" d="M19.039,6.861c-1.053-0.048-1.371-0.059-4.041-0.059s-2.986,0.011-4.041,0.059
		c-2.711,0.123-3.975,1.407-4.098,4.097C6.809,12.013,6.801,12.329,6.801,15s0.008,2.986,0.059,4.041
		c0.123,2.686,1.382,3.975,4.098,4.098c1.053,0.048,1.371,0.059,4.041,0.059s2.988-0.01,4.041-0.058
		c2.711-0.122,3.975-1.409,4.098-4.097c0.051-1.055,0.063-1.371,0.063-4.043c0-2.668-0.012-2.983-0.063-4.037
		C23.014,8.269,21.75,6.984,19.039,6.861z M15,20.134c-2.838,0-5.133-2.298-5.133-5.135c0-2.836,2.297-5.133,5.133-5.133
		s5.133,2.297,5.133,5.133C20.133,17.836,17.838,20.134,15,20.134z M20.34,10.863c-0.666,0-1.203-0.539-1.203-1.201
		S19.674,8.46,20.34,8.46C21,8.46,21.535,9,21.535,9.662S21,10.863,20.34,10.863z"/>
	<circle fill="#B8C3AE" cx="14.998" cy="15" r="3.334"/>
	<path fill="#B8C3AE" d="M0,0v30h30V0H0z M24.939,19.123c-0.164,3.636-2.188,5.65-5.814,5.817C18.057,24.99,17.717,25,15,25
		s-3.057-0.01-4.123-0.06c-3.635-0.167-5.648-2.185-5.816-5.817C5.011,18.056,4.999,17.716,4.999,15
		c0-2.715,0.012-3.056,0.062-4.122c0.168-3.636,2.184-5.651,5.816-5.815C11.943,5.01,12.283,5,15,5s3.057,0.01,4.125,0.06
		c3.635,0.166,5.65,2.188,5.814,5.816c0.051,1.067,0.062,1.408,0.062,4.123C25.001,17.716,24.99,18.056,24.939,19.123z"/>
</g>
</svg>
