<?xml version="1.0" encoding="utf-8"?>
<!-- Generator: Adobe Illustrator 16.0.0, SVG Export Plug-In . SVG Version: 6.00 Build 0)  -->
<!DOCTYPE svg PUBLIC "-//W3C//DTD SVG 1.1//EN" "http://www.w3.org/Graphics/SVG/1.1/DTD/svg11.dtd">
<svg version="1.1" id="Layer_1" xmlns="http://www.w3.org/2000/svg" xmlns:xlink="http://www.w3.org/1999/xlink" x="0px" y="0px"
	 width="1020px" height="1020px" viewBox="-464.721 -464.711 1020 1020" enable-background="new -464.721 -464.711 1020 1020"
	 xml:space="preserve">
<g>
	<g id="LEATHER">
		<path display="none" fill="none" stroke="#4F868C" stroke-width="3" stroke-miterlimit="10" d="M45.268-454.733
			c265.847,0,481.353,223.016,481.353,498.125c0,275.109-215.506,498.125-481.353,498.125
			c-265.835,0-481.342-223.016-481.342-498.125C-436.074-231.717-220.567-454.733,45.268-454.733z"/>
		<path fill="#4F868C" d="M75.416,329.717H14.843c-5.734,0-11.093-2.724-14.468-7.355c-20.764-28.539-73.409-37.029-107.494-15.989
			c-8.148,5.083-18.812,2.734-24.193-5.161c-75.317-110.791-75.317-110.791-73.497-118.676c1.113-4.797,4.146-8.91,8.369-11.413
			c18.856-11.061,62.724-45.72,62.724-127.729c0-70.497-30.326-114.375-60.386-126.571c-6.836-2.79-11.258-9.472-11.159-16.872
			c0.121-7.598,0.121-7.598,74.698-77.721c5.944-5.624,14.909-6.462,21.823-2.084c8.745,5.558,18.658,8.491,28.67,8.491
			c29.587,0,53.648-24.073,53.648-53.681c0-9.892,7.995-17.897,17.886-17.897H98.773c9.869,0,17.886,8.006,17.886,17.897
			c0,29.608,24.051,53.681,53.648,53.681c10.023,0,19.947-2.933,28.66-8.491c6.891-4.367,15.867-3.54,21.845,2.084
			c77.918,73.288,77.918,73.288,73.453,84.59c-1.809,4.532-5.404,8.161-9.914,10.002c-30.071,12.196-60.396,56.074-60.396,126.571
			c0,82.01,43.855,116.669,62.745,127.729c4.212,2.503,7.234,6.616,8.348,11.413c1.809,7.885,1.809,7.885-73.497,118.676
			c-5.381,7.918-16.045,10.244-24.183,5.161c-34.096-21.085-86.752-12.55-107.517,15.989
			C86.488,326.993,81.14,329.717,75.416,329.717z M23.334,293.922h43.559c30.214-33.776,88.682-45.399,133.97-25.958
			c14.546-21.404,38.64-56.912,52.027-76.685c-26.94-21.128-64.708-65.479-64.708-147.887c0-74.809,28.76-122.524,59.845-146.431
			c-13.431-12.66-31.604-29.741-42.433-39.908c-11.193,4.852-23.18,7.388-35.299,7.388c-43.183,0-79.297-30.799-87.623-71.589H7.532
			c-8.303,40.79-44.44,71.589-87.623,71.589c-12.119,0-24.117-2.547-35.287-7.388c-10.829,10.167-28.991,27.259-42.444,39.908
			c31.086,23.907,59.856,71.623,59.856,146.431c0,82.407-37.78,126.759-64.708,147.887c13.387,19.772,37.493,55.28,52.027,76.685
			C-65.381,248.501-6.891,260.145,23.334,293.922z"/>
	</g>
	
		<rect x="-454.721" y="-454.711" fill="none" stroke="#4F868C" stroke-width="20" stroke-miterlimit="10" width="1000" height="1000"/>
</g>
</svg>
