<?xml version="1.0" encoding="utf-8"?>
<!-- Generator: Adobe Illustrator 16.0.0, SVG Export Plug-In . SVG Version: 6.00 Build 0)  -->
<!DOCTYPE svg PUBLIC "-//W3C//DTD SVG 1.1//EN" "http://www.w3.org/Graphics/SVG/1.1/DTD/svg11.dtd">
<svg version="1.1" id="Layer_1" xmlns="http://www.w3.org/2000/svg" xmlns:xlink="http://www.w3.org/1999/xlink" x="0px" y="0px"
	 width="1020px" height="1020px" viewBox="-464.72 -464.731 1020 1020" enable-background="new -464.72 -464.731 1020 1020"
	 xml:space="preserve">
<g>
	<g id="THREE">
		<path display="none" fill="none" stroke="#4F868C" stroke-width="3" stroke-miterlimit="10" d="M45.268-455.393
			c267.214,0,483.823,224.152,483.823,500.673c0,276.509-216.608,500.673-483.823,500.673
			c-267.202,0-483.812-224.164-483.812-500.673C-438.543-231.241-221.934-455.393,45.268-455.393z"/>
		<g>
			<g>
				<path fill="#4F868C" d="M308.964,27.702c0-23.19-10.167-45.19-27.811-60.22c6.727-10.983,10.277-23.598,10.223-36.467
					c-0.066-35.662-26.741-65.646-62.149-69.836c0.418-3.077,0.627-6.164,0.627-9.274c0.089-38.75-31.262-70.233-70-70.332
					c-22.805-0.055-44.198,10.983-57.387,29.575C80.093-220.446,36.325-227.9,4.744-205.514
					c-6.451,4.576-12.097,10.211-16.663,16.662c-22.507-31.571-66.351-38.915-97.922-16.431
					c-21.172,15.097-32.288,40.669-28.858,66.451c-35.398,4.19-62.095,34.174-62.139,69.836
					c-0.034,12.858,3.507,25.484,10.233,36.467c-33.258,28.34-37.239,78.272-8.91,111.508c2.734,3.187,5.712,6.187,8.91,8.888
					c-6.726,10.994-10.267,23.632-10.233,36.49c0.043,38.826,31.516,70.287,70.332,70.32h52.732v96.698h-26.367
					c-4.852,0-8.799,3.938-8.799,8.778c0,4.862,3.947,8.777,8.799,8.777h298.84c4.852,0,8.778-3.926,8.778-8.777
					c0-4.853-3.938-8.778-8.778-8.778h-26.378v-96.698h52.745c38.826-0.033,70.276-31.494,70.32-70.32
					c0.056-12.869-3.507-25.496-10.223-36.457C298.797,72.881,308.964,50.882,308.964,27.702z M-130.517,177.045
					c-29.09-0.044-52.667-23.576-52.732-52.667c-0.034-11.953,4.036-23.553,11.523-32.86c3.055-3.794,2.415-9.329-1.378-12.351
					c-0.177-0.144-0.364-0.287-0.563-0.419c-28.196-18.967-35.684-57.188-16.706-85.396c4.443-6.594,10.111-12.284,16.706-16.706
					c4.025-2.713,5.084-8.182,2.36-12.207c-0.121-0.188-0.265-0.386-0.419-0.563c-7.499-9.307-11.557-20.919-11.523-32.861
					c0.021-29.123,23.62-52.71,52.732-52.733l2.283,0.122c2.833,0.143,5.568-1.136,7.278-3.407c1.753-2.239,2.304-5.194,1.466-7.907
					c-8.226-27.932,7.752-57.253,35.684-65.502c24.834-7.322,51.311,4.466,62.48,27.833c0,0.088,0,0.188-0.055,0.265
					c-1.103,3.297-1.941,6.671-2.536,10.09c-0.11,0.573-0.177,1.18-0.276,1.753c-1.037,6.496-1.135,13.101-0.243,19.618
					c-35.419,4.18-62.105,34.196-62.139,69.869c-0.044,12.858,3.507,25.484,10.223,36.467c-0.155,0.132-0.298,0.298-0.463,0.441
					l-40.911-40.912c-3.496-3.396-9.053-3.275-12.428,0.209c-3.287,3.396-3.287,8.811,0,12.218l41.407,41.408
					c-24.635,33.402-19.232,80.18,12.384,107.086c-3.396,5.514-5.988,11.513-7.698,17.754l-31.472-31.461
					c-3.495-3.375-9.053-3.285-12.438,0.21c-3.287,3.418-3.287,8.821,0,12.229l41.583,41.562c0.066,1.214,0.088,2.449,0.21,3.64
					c0.088,0.839,0.265,1.621,0.374,2.426c0.232,1.644,0.464,3.243,0.806,4.842c0.199,0.959,0.475,1.864,0.706,2.79
					c0.364,1.41,0.717,2.822,1.18,4.2c0.309,0.972,0.695,1.908,1.047,2.857c0.486,1.289,0.971,2.591,1.534,3.826
					c0.419,0.97,0.882,1.863,1.345,2.801c0.584,1.202,1.213,2.404,1.875,3.528c0.519,0.871,1.069,1.753,1.632,2.636
					c0.717,1.114,1.422,2.185,2.195,3.242c0.606,0.882,1.246,1.71,1.896,2.548c0.794,1.036,1.632,2.028,2.492,3.01
					c0.706,0.805,1.4,1.588,2.117,2.326c0.882,0.949,1.863,1.864,2.823,2.757c0.475,0.453,0.927,0.972,1.423,1.412h-67.785V177.045z
					 M36.49,291.387h-96.687V194.7H36.49V291.387z M45.268-104.162c-4.852,0-8.778,3.948-8.778,8.8v62.293l-39.94-39.93
					c-3.496-3.396-9.054-3.275-12.439,0.21c-3.286,3.396-3.286,8.811,0,12.218L36.48-8.224v120.187L-1.255,74.226
					c-3.496-3.375-9.065-3.285-12.428,0.21c-3.298,3.418-3.298,8.821,0,12.229l50.163,50.164v40.282h-52.732
					c-29.112-0.022-52.7-23.62-52.744-52.733c-0.022-11.953,4.047-23.553,11.545-32.86c3.021-3.794,2.394-9.329-1.4-12.351
					c-0.177-0.144-0.375-0.287-0.562-0.419C-87.611,59.781-95.087,21.56-76.12-6.648c4.444-6.594,10.112-12.284,16.707-16.706
					c4.024-2.713,5.094-8.182,2.36-12.207c-0.122-0.188-0.276-0.386-0.409-0.563c-7.509-9.307-11.589-20.919-11.545-32.861
					c0.034-29.123,23.631-52.71,52.744-52.733l2.261,0.122c2.867,0.166,5.591-1.125,7.3-3.407c1.753-2.239,2.294-5.194,1.467-7.907
					c-1.478-4.929-2.25-10.046-2.25-15.174c0-3.253,0.32-6.484,0.927-9.67c0-0.122,0-0.254,0.043-0.364
					c0.651-3.187,1.566-6.308,2.757-9.296c7.929-20.136,27.37-33.391,49.005-33.401c21.646,0.01,41.077,13.265,49.018,33.401
					c1.19,3.021,2.116,6.142,2.733,9.351c0,0.121,0,0.254,0.066,0.375c0.606,3.165,0.894,6.374,0.927,9.616
					c-0.022,5.139-0.771,10.255-2.249,15.174c-0.816,2.712-0.265,5.667,1.478,7.906c1.697,2.272,4.443,3.551,7.277,3.407
					l2.283-0.121c29.111,0.022,52.71,23.621,52.732,52.733c0.032,11.954-4.025,23.543-11.524,32.861
					c-3.044,3.782-2.415,9.329,1.379,12.35c0.198,0.155,0.363,0.287,0.573,0.43c28.187,18.967,35.673,57.199,16.695,85.396
					c-4.433,6.583-10.101,12.273-16.695,16.696c-4.025,2.712-5.094,8.193-2.371,12.195c0.122,0.198,0.265,0.396,0.419,0.573
					c7.499,9.308,11.557,20.919,11.524,32.861c-0.022,29.112-23.621,52.711-52.732,52.733H54.046V57.1
					c0.662-0.319,1.269-0.728,1.819-1.213l57.133-57.132c3.408-3.485,3.275-9.042-0.199-12.428c-3.417-3.286-8.82-3.286-12.217,0
					L54.046,32.852V-95.363C54.069-100.214,50.131-104.162,45.268-104.162z M150.756,291.387H54.069V194.7h96.688V291.387z
					 M261.845,90.944c0.133,0.198,0.275,0.397,0.419,0.573c7.51,9.308,11.567,20.919,11.546,32.86
					c-0.045,29.113-23.632,52.711-52.743,52.733h-67.808c0.507-0.42,0.948-0.938,1.434-1.4c0.959-0.882,1.896-1.798,2.823-2.745
					c0.728-0.739,1.422-1.544,2.128-2.339c0.871-0.98,1.688-1.974,2.503-3.01c0.65-0.828,1.279-1.666,1.887-2.525
					c0.771-1.07,1.478-2.161,2.183-3.264c0.563-0.883,1.114-1.765,1.644-2.636c0.65-1.169,1.278-2.35,1.863-3.519
					c0.463-0.926,0.882-1.852,1.346-2.8c0.551-1.247,1.047-2.548,1.532-3.827c0.364-0.971,0.739-1.897,1.048-2.867
					c0.452-1.367,0.816-2.79,1.18-4.19c0.231-0.927,0.519-1.842,0.705-2.79c0.342-1.599,0.586-3.209,0.795-4.841
					c0.11-0.805,0.286-1.61,0.375-2.426c0.265-2.515,0.419-5.039,0.419-7.564c0.044-12.869-3.518-25.495-10.233-36.457
					c16.585-14.191,26.575-34.593,27.601-56.382l32.784-32.795c3.363-3.485,3.266-9.042-0.22-12.428
					c-3.407-3.287-8.812-3.287-12.208,0L192.328,8.813c-3.937-16.089-12.835-30.557-25.451-41.297
					c6.749-10.994,10.289-23.631,10.233-36.512c-0.055-35.651-26.741-65.646-62.139-69.836c0.871-6.528,0.771-13.133-0.275-19.617
					c-0.089-0.606-0.166-1.202-0.275-1.765c-0.585-3.418-1.445-6.782-2.525-10.079c0-0.088,0-0.187-0.066-0.275
					c12.571-26.278,44.055-37.382,70.332-24.822c23.355,11.17,35.155,37.636,27.833,62.48c-0.805,2.724-0.265,5.668,1.489,7.917
					c1.687,2.272,4.433,3.54,7.277,3.396l2.306-0.132c29.111,0.022,52.698,23.621,52.743,52.732
					c0.021,11.954-4.036,23.554-11.546,32.861c-3.033,3.783-2.404,9.329,1.39,12.351c0.176,0.143,0.363,0.286,0.573,0.43
					c28.196,18.967,35.673,57.199,16.695,85.396c-4.444,6.583-10.112,12.272-16.695,16.695
					C260.191,81.46,259.121,86.92,261.845,90.944z"/>
			</g>
		</g>
	</g>
	
		<rect x="-454.72" y="-454.731" fill="none" stroke="#4F868C" stroke-width="20" stroke-miterlimit="10" width="1000" height="1000"/>
</g>
</svg>
