<?xml version="1.0" encoding="utf-8"?>
<!-- Generator: Adobe Illustrator 16.0.0, SVG Export Plug-In . SVG Version: 6.00 Build 0)  -->
<!DOCTYPE svg PUBLIC "-//W3C//DTD SVG 1.1//EN" "http://www.w3.org/Graphics/SVG/1.1/DTD/svg11.dtd">
<svg version="1.1" id="Layer_1" xmlns="http://www.w3.org/2000/svg" xmlns:xlink="http://www.w3.org/1999/xlink" x="0px" y="0px"
	 width="200px" height="342.308px" viewBox="-20.741 -35.498 200 342.308" enable-background="new -20.741 -35.498 200 342.308"
	 xml:space="preserve">
<image display="none" overflow="visible" opacity="0.5" enable-background="new    " width="208" height="312" xlink:href="A34B1F05.png"  transform="matrix(0.9231 0 0 0.9231 -118.7625 59.4915)">
</image>
<g display="none">
	<path display="inline" fill="none" stroke="#000000" stroke-width="17" stroke-miterlimit="10" d="M79.449,224.847
		c0,6.677,0.432,15.474-1.989,21.75c-1.95,5.052-4.291,8.891-7.795,12.375c-4.267,4.243-11.719,5.85-18.264,5.849
		c-12.634,0-23.643-6.957-29.403-17.25c-0.831-1.482-1.496-2.906-1.803-4.6c-0.158-0.88-0.352-3.625-0.352-3.625v-5.499"/>
	<path display="inline" fill="none" stroke="#000000" stroke-miterlimit="10" d="M79.449,249.787"/>
	
		<line display="inline" fill="none" stroke="#000000" stroke-width="17" stroke-miterlimit="10" x1="19.844" y1="233.847" x2="19.844" y2="135.139"/>
	<polygon display="inline" fill="none" stroke="#000000" stroke-width="17" stroke-miterlimit="10" points="17.708,128.212 
		19.844,125.506 21.98,128.212 	"/>
	
		<line display="inline" fill="none" stroke="#000000" stroke-width="17" stroke-miterlimit="10" x1="139.083" y1="235.199" x2="139.083" y2="136.491"/>
	<polygon display="inline" fill="none" stroke="#000000" stroke-width="17" stroke-miterlimit="10" points="136.841,128.212 
		138.977,125.506 141.114,128.212 	"/>
	
		<line display="inline" fill="none" stroke="#000000" stroke-width="17" stroke-miterlimit="10" x1="79.449" y1="224.847" x2="79.449" y2="77.93"/>
	<path display="inline" d="M79.415,40.847c-11.046,0-20,8.954-20,20c0,11.045,8.954,20,20,20s20-8.955,20-20
		C99.415,49.801,90.46,40.847,79.415,40.847z M79.415,68.681c-4.326,0-7.833-3.507-7.833-7.834s3.507-7.833,7.833-7.833
		s7.833,3.507,7.833,7.833C87.248,65.174,83.741,68.681,79.415,68.681z"/>
	
		<line display="inline" fill="none" stroke="#000000" stroke-width="17" stroke-miterlimit="10" x1="19.844" y1="94.347" x2="19.844" y2="8.555"/>
	
		<line display="inline" fill="none" stroke="#000000" stroke-width="17" stroke-miterlimit="10" x1="138.977" y1="94.347" x2="138.977" y2="8.555"/>
	
		<line display="inline" fill="none" stroke="#000000" stroke-width="17" stroke-miterlimit="10" x1="11.336" y1="8.555" x2="147.493" y2="8.555"/>
	<path display="inline" fill="none" stroke="#000000" stroke-width="17" stroke-miterlimit="10" d="M79.479,224.847
		c0,6.677-0.432,15.474,1.989,21.75c1.95,5.052,4.291,8.891,7.795,12.375c4.266,4.243,11.718,5.85,18.263,5.849
		c12.635,0,23.644-6.957,29.404-17.25c0.831-1.482,1.496-2.906,1.802-4.6c0.159-0.88,0.353-3.625,0.353-3.625v-5.499"/>
	<path display="inline" fill="none" d="M79.449,274.013"/>
	<polyline display="inline" fill="none" points="79.449,274.013 -0.46,274.013 -0.46,-1.153 79.449,-1.153 	"/>
</g>
<g display="none">
	<g display="inline">
		<defs>
			<rect id="SVGID_1_" x="462.223" y="-127.814" width="79.909" height="275.167"/>
		</defs>
		<clipPath id="SVGID_2_">
			<use xlink:href="#SVGID_1_"  overflow="visible"/>
		</clipPath>
		<path clip-path="url(#SVGID_2_)" fill="none" stroke="#000000" stroke-width="17" stroke-miterlimit="10" d="M462.223,98.186
			c0,6.677-0.432,15.475,1.989,21.75c1.95,5.052,4.291,8.892,7.795,12.375c4.267,4.242,11.718,5.851,18.264,5.85
			c12.634,0,23.643-6.958,29.403-17.25c0.831-1.484,1.496-2.907,1.802-4.601c0.159-0.88,0.353-3.625,0.353-3.625v-5.5"/>
	</g>
	<g display="inline">
		<defs>
			<rect id="SVGID_3_" x="462.223" y="-127.814" width="79.909" height="275.167"/>
		</defs>
		<clipPath id="SVGID_4_">
			<use xlink:href="#SVGID_3_"  overflow="visible"/>
		</clipPath>
		<path clip-path="url(#SVGID_4_)" fill="none" stroke="#000000" stroke-miterlimit="10" d="M462.223,123.126"/>
	</g>
	<g display="inline">
		<defs>
			<rect id="SVGID_5_" x="462.223" y="-127.814" width="79.909" height="275.167"/>
		</defs>
		<clipPath id="SVGID_6_">
			<use xlink:href="#SVGID_5_"  overflow="visible"/>
		</clipPath>
		
			<line clip-path="url(#SVGID_6_)" fill="none" stroke="#000000" stroke-width="17" stroke-miterlimit="10" x1="521.828" y1="107.186" x2="521.828" y2="8.478"/>
	</g>
	<g display="inline">
		<defs>
			<rect id="SVGID_7_" x="462.223" y="-127.814" width="79.909" height="275.167"/>
		</defs>
		<clipPath id="SVGID_8_">
			<use xlink:href="#SVGID_7_"  overflow="visible"/>
		</clipPath>
		<polygon clip-path="url(#SVGID_8_)" fill="none" stroke="#000000" stroke-width="17" stroke-miterlimit="10" points="
			523.964,1.552 521.828,-1.153 519.692,1.552 		"/>
	</g>
	<g display="inline">
		<defs>
			<rect id="SVGID_9_" x="462.223" y="-127.814" width="79.909" height="275.167"/>
		</defs>
		<clipPath id="SVGID_10_">
			<use xlink:href="#SVGID_9_"  overflow="visible"/>
		</clipPath>
		
			<line clip-path="url(#SVGID_10_)" fill="none" stroke="#000000" stroke-width="17" stroke-miterlimit="10" x1="402.588" y1="108.539" x2="402.588" y2="9.831"/>
	</g>
	<g display="inline">
		<defs>
			<rect id="SVGID_11_" x="462.223" y="-127.814" width="79.909" height="275.167"/>
		</defs>
		<clipPath id="SVGID_12_">
			<use xlink:href="#SVGID_11_"  overflow="visible"/>
		</clipPath>
		<polygon clip-path="url(#SVGID_12_)" fill="none" stroke="#000000" stroke-width="17" stroke-miterlimit="10" points="
			404.831,1.552 402.694,-1.153 400.558,1.552 		"/>
	</g>
	<g display="inline">
		<defs>
			<rect id="SVGID_13_" x="462.223" y="-127.814" width="79.909" height="275.167"/>
		</defs>
		<clipPath id="SVGID_14_">
			<use xlink:href="#SVGID_13_"  overflow="visible"/>
		</clipPath>
		
			<line clip-path="url(#SVGID_14_)" fill="none" stroke="#000000" stroke-width="17" stroke-miterlimit="10" x1="462.223" y1="98.186" x2="462.223" y2="-48.73"/>
	</g>
	<g display="inline">
		<defs>
			<rect id="SVGID_15_" x="462.223" y="-127.814" width="79.909" height="275.167"/>
		</defs>
		<clipPath id="SVGID_16_">
			<use xlink:href="#SVGID_15_"  overflow="visible"/>
		</clipPath>
		<path clip-path="url(#SVGID_16_)" d="M442.257-65.813c0,11.045,8.954,20,20,20s20-8.955,20-20s-8.954-20-20-20
			S442.257-76.859,442.257-65.813z M454.423-65.813c0-4.327,3.507-7.833,7.833-7.833s7.833,3.507,7.833,7.833
			s-3.507,7.833-7.833,7.833S454.423-61.487,454.423-65.813z"/>
	</g>
	<g display="inline">
		<defs>
			<rect id="SVGID_17_" x="462.223" y="-127.814" width="79.909" height="275.167"/>
		</defs>
		<clipPath id="SVGID_18_">
			<use xlink:href="#SVGID_17_"  overflow="visible"/>
		</clipPath>
		
			<line clip-path="url(#SVGID_18_)" fill="none" stroke="#000000" stroke-width="17" stroke-miterlimit="10" x1="521.828" y1="-32.314" x2="521.828" y2="-118.105"/>
	</g>
	<g display="inline">
		<defs>
			<rect id="SVGID_19_" x="462.223" y="-127.814" width="79.909" height="275.167"/>
		</defs>
		<clipPath id="SVGID_20_">
			<use xlink:href="#SVGID_19_"  overflow="visible"/>
		</clipPath>
		
			<line clip-path="url(#SVGID_20_)" fill="none" stroke="#000000" stroke-width="17" stroke-miterlimit="10" x1="402.694" y1="-32.314" x2="402.694" y2="-118.105"/>
	</g>
	<g display="inline">
		<defs>
			<rect id="SVGID_21_" x="462.223" y="-127.814" width="79.909" height="275.167"/>
		</defs>
		<clipPath id="SVGID_22_">
			<use xlink:href="#SVGID_21_"  overflow="visible"/>
		</clipPath>
		
			<line clip-path="url(#SVGID_22_)" fill="none" stroke="#000000" stroke-width="17" stroke-miterlimit="10" x1="530.335" y1="-118.105" x2="394.179" y2="-118.105"/>
	</g>
	<g display="inline">
		<defs>
			<rect id="SVGID_23_" x="462.223" y="-127.814" width="79.909" height="275.167"/>
		</defs>
		<clipPath id="SVGID_24_">
			<use xlink:href="#SVGID_23_"  overflow="visible"/>
		</clipPath>
		<path clip-path="url(#SVGID_24_)" fill="none" stroke="#000000" stroke-width="17" stroke-miterlimit="10" d="M462.194,98.186
			c0,6.677,0.432,15.475-1.989,21.75c-1.95,5.052-4.291,8.892-7.795,12.375c-4.267,4.242-11.718,5.851-18.264,5.85
			c-12.634,0-23.643-6.958-29.403-17.25c-0.831-1.484-1.496-2.907-1.803-4.601c-0.158-0.88-0.352-3.625-0.352-3.625v-5.5"/>
	</g>
</g>
<polygon fill="#B8C3AE" points="165.348,-35.446 165.348,-35.498 -6.5,-35.498 -6.5,-13.912 -6.5,-13.912 -6.5,83.71 15.086,83.71 
	15.086,-13.912 143.942,-13.912 143.942,83.71 165.531,83.71 165.531,-35.446 "/>
<path fill="#B8C3AE" d="M79.573,31.386V15.803c-13.934,0-25.233,11.299-25.233,25.236c0,13.934,11.299,25.233,25.233,25.233V50.686
	c-5.329,0-9.649-4.321-9.649-9.647C69.923,35.707,74.243,31.386,79.573,31.386z"/>
<path fill="#B8C3AE" d="M79.539,63.327v216.828l-0.295,11.377c-8.881,9.332-22.316,15.277-37.354,15.277
	c-25.893,0-47.025-17.399-48.324-39.591l-0.022-0.234h0.234h-0.234V137.138l0.747,0.423h-15.032l25.08-31.788l25.083,31.788H14.451
	l0.68-0.423v129.847l0.167-0.017c1.253,11.817,12.703,21.071,26.648,21.065c14.193,0,25.804-9.582,26.707-21.7v-0.218V63.327h11.001
	H79.539z"/>
<path fill="#B8C3AE" d="M40.542,69.239v0.686V69.239z"/>
<path fill="#B8C3AE" d="M78.863,31.386V15.803c13.934,0,25.232,11.299,25.232,25.236c0,13.934-11.299,25.233-25.232,25.233V50.686
	c5.326,0,9.649-4.321,9.649-9.647C88.512,35.707,84.189,31.386,78.863,31.386z"/>
<path fill="#B8C3AE" d="M78.976,63.269v216.826l0.295,11.376c8.878,9.333,22.316,15.283,37.354,15.283
	c25.896,0,47.028-17.411,48.326-39.597l0.018-0.239h-0.234h0.234V137.076l-0.747,0.426h15.037l-25.082-31.788l-25.083,31.788h14.971
	l-0.68-0.426v129.848l-0.167-0.012c-1.254,11.812-12.703,21.065-26.648,21.065c-14.196,0-25.801-9.588-26.704-21.7v-0.223V63.269
	h-11H78.976z"/>
</svg>
