<?xml version="1.0" encoding="utf-8"?>
<!-- Generator: Adobe Illustrator 16.0.0, SVG Export Plug-In . SVG Version: 6.00 Build 0)  -->
<!DOCTYPE svg PUBLIC "-//W3C//DTD SVG 1.1//EN" "http://www.w3.org/Graphics/SVG/1.1/DTD/svg11.dtd">
<svg version="1.1" id="Layer_1" xmlns="http://www.w3.org/2000/svg" xmlns:xlink="http://www.w3.org/1999/xlink" x="0px" y="0px"
	 width="2927.381px" height="1394px" viewBox="-1007.62 134.183 2927.381 1394"
	 enable-background="new -1007.62 134.183 2927.381 1394" xml:space="preserve">
<rect x="-1007.619" y="134.183" fill="#0A1920" width="2927.378" height="1394"/>
<path opacity="0.75" fill="#4F868C" enable-background="new    " d="M-1007.619,498.457l62.535-10.72l115.89,10.72l70.143-30.013
	l42.697,15.005l118.939-53.591l88.442-23.581l121.989-38.586l121.989-36.443l64.045-37.314l39.646-16.276l100.643,16.276h97.589
	l128.088,24.453l173.836,32.155l117.217,49.304l102.363-38.585l85.393-67.327l97.592-44.145l48.797-60.023l39.646-25.724
	l88.441,30.012l164.686,79.316l94.543,83.604c0,0,140.289,42.873,149.436,47.16c9.148,4.287,115.891,38.588,158.586,38.588
	s112.84,0,134.189,0c21.348,0,109.791-55.736,109.791-55.736l121.988,12.861l48.795,45.019l19.443,13.742v331.5h-2927.378V498.457z"
	/>
<path opacity="0.6" fill="#234F59" enable-background="new    " d="M-1007.619,530.569l143.873,38.587l100.64,2.145l158.587-66.456
	L-464.231,537l125.039-17.15c0,0,156.521,45.092,165.671,48.095c9.149,3.007,216.531-27.005,228.73-33.437
	c12.199-6.431,115.891-49.105,115.891-49.105l256.178-13.062l170.785-55.735l292.775,69.004l176.885-0.209
	c0,0,164.686,38.391,176.887,38.391c12.197,0,265.322,44.153,265.322,44.153l137.24,11.581l146.387,34.3l112.84,15.005l13.363,2.858
	v158.419l-2927.38,0.002V530.569z"/>
<path fill="#0A1920" d="M-1007.619,694.875l152.194-68.093l247.028-28.374l85.392-30.012l95.37,99.216l161.635-64.313
	l283.625,87.668h213.48L551.33,568.397c0,0,161.637,103.655,170.787,107.942c9.148,4.288,234.002-92.936,234.002-92.936
	l131.137,111.472c0,0,103.693,36.443,112.842,32.155c9.148-4.287,103.689-6.432,143.336-8.575
	c39.648-2.144,158.586-4.288,198.232-6.432c39.648-2.143,201.285-30.011,201.285-30.011l176.809,96.467v35.055h-2927.378V694.875z"
	/>
</svg>
