<?xml version="1.0" encoding="utf-8"?>
<!-- Generator: Adobe Illustrator 16.0.0, SVG Export Plug-In . SVG Version: 6.00 Build 0)  -->
<!DOCTYPE svg PUBLIC "-//W3C//DTD SVG 1.1//EN" "http://www.w3.org/Graphics/SVG/1.1/DTD/svg11.dtd">
<svg version="1.1" id="Layer_1" xmlns="http://www.w3.org/2000/svg" xmlns:xlink="http://www.w3.org/1999/xlink" x="0px" y="0px"
	 width="1374px" height="628px" viewBox="0 0 1374 628" enable-background="new 0 0 1374 628" xml:space="preserve">
<rect fill="#0A1920" width="1374" height="628"/>
<g opacity="0.2">
	
		<path id="imagebot_16" fill="none" stroke="#234F59" stroke-width="3.234" stroke-miterlimit="3.864" stroke-dasharray="8.56,4.28" d="
		M739.689,62.381c-166.997,5.918-499.057,171.527-448.736,316.766"/>
	
		<path id="imagebot_16_2_" fill="none" stroke="#234F59" stroke-width="3.234" stroke-miterlimit="3.864" stroke-dasharray="8.56,4.28" d="
		M293.167,384.834c36.56,105.59,151.495,73.957,151.495,7.959c0-48.505-61.593-66.84-79.193-26.395
		c-17.601,40.448,38.744,70.394,105.587,92.393c66.849,21.998,364.651,80.19,369.565,83.076"/>
	
		<path id="imagebot_16_1_" fill="none" stroke="#234F59" stroke-width="3.234" stroke-miterlimit="3.864" stroke-dasharray="8.56,4.28" d="
		M964.439,155.026c0,0-50.763-98.563-217.772-92.646"/>
	<path id="imagebot_15" fill="#234F59" d="M847.17,513.081l90.361,104.557l26.908-5.918l-114.901-110.32L847.17,513.081"/>
	<path id="imagebot_14" fill="#234F59" d="M950.418,507.327L803.72,585.854l25.651,24.684l143.148-91.544V508.5"/>
	<path id="imagebot_13" fill="#234F59" d="M964.439,205.253c0-18.128,14.694-32.83,32.827-32.83
		c18.132,0,32.825,14.701,32.825,32.83c0,18.132-14.693,32.83-32.825,32.83C979.134,238.083,964.439,223.386,964.439,205.253"/>
</g>
</svg>
