<?xml version="1.0" encoding="utf-8"?>
<!-- Generator: Adobe Illustrator 16.0.0, SVG Export Plug-In . SVG Version: 6.00 Build 0)  -->
<!DOCTYPE svg PUBLIC "-//W3C//DTD SVG 1.1//EN" "http://www.w3.org/Graphics/SVG/1.1/DTD/svg11.dtd">
<svg version="1.1" xmlns="http://www.w3.org/2000/svg" xmlns:xlink="http://www.w3.org/1999/xlink" x="0px" y="0px"
	 width="1603.495px" height="800.489px" viewBox="0 0 1603.495 800.489" enable-background="new 0 0 1603.495 800.489"
	 xml:space="preserve">
<g id="Layer_1">
</g>
<g id="Layer_2">
	<rect x="0.214" fill="#0A1920" width="1600" height="800"/>
	<path opacity="0.2" fill="none" stroke="#234F59" stroke-miterlimit="10" stroke-dasharray="10,4.28" d="M1603.186,696.238
		c-55.837,43.778-130.053,78.809-225.476,103.76"/>
	<path opacity="0.2" fill="none" stroke="#234F59" stroke-miterlimit="10" stroke-dasharray="10,4.28" d="M0.214,55.092"/>
	<path opacity="0.2" fill="none" stroke="#234F59" stroke-miterlimit="10" d="M784.332,351.363
		c0,45.355,255.471,150.165,326.655,150.165c71.184,0,128.89-36.767,128.89-82.121c0-45.355-84.448-145.469-137.779-39.891
		C1057.628,467.552,784.332,306.009,784.332,351.363z"/>
	<path opacity="0.2" fill="none" stroke="#234F59" stroke-miterlimit="10" d="M1324.311,417.171
		c0,90.38-128.341,163.648-286.655,163.648c-158.315,0-486.649-174.269-486.649-264.649s328.333-31.673,486.649-31.673
		C1195.97,284.497,1324.311,326.79,1324.311,417.171z"/>
	<path opacity="0.2" fill="none" stroke="#234F59" stroke-miterlimit="10" d="M1399.865,400.633
		c-58.287,112.824-184.438,369.529-484.427,263.949C654.267,572.665,68.803,373.963,68.803,228.188s723.531-10.559,991.073-10.559
		C1327.417,217.629,1459.863,284.497,1399.865,400.633z"/>
	
		<line opacity="0.2" fill="none" stroke="#234F59" stroke-miterlimit="10" stroke-dasharray="30,30" x1="1600.214" y1="619.41" x2="0.214" y2="748.876"/>
	
		<line opacity="0.2" fill="none" stroke="#234F59" stroke-miterlimit="10" stroke-dasharray="30,30" x1="1600.214" y1="106.585" x2="0.214" y2="319.956"/>
</g>
</svg>
