<?xml version="1.0" encoding="utf-8"?>
<!-- Generator: Adobe Illustrator 16.0.0, SVG Export Plug-In . SVG Version: 6.00 Build 0)  -->
<!DOCTYPE svg PUBLIC "-//W3C//DTD SVG 1.1//EN" "http://www.w3.org/Graphics/SVG/1.1/DTD/svg11.dtd">
<svg version="1.1" xmlns="http://www.w3.org/2000/svg" xmlns:xlink="http://www.w3.org/1999/xlink" x="0px" y="0px"
	 width="1603.495px" height="800.489px" viewBox="0 0 1603.495 800.489" enable-background="new 0 0 1603.495 800.489"
	 xml:space="preserve">
<g id="Layer_1">
</g>
<g id="Layer_2">
	<rect x="3.185" fill="#0A1920" width="1600" height="800"/>
	<path opacity="0.2" fill="none" stroke="#234F59" stroke-miterlimit="10" stroke-dasharray="10,4.28" d="M1603.185,744.908"/>
	<path opacity="0.2" fill="none" stroke="#234F59" stroke-miterlimit="10" d="M819.069,448.637
		c0-45.355-255.471-150.165-326.656-150.165c-71.184,0-128.89,36.767-128.89,82.121c0,45.355,84.448,145.47,137.779,39.891
		C545.771,332.448,819.068,493.991,819.069,448.637z"/>
	<path opacity="0.2" fill="none" stroke="#234F59" stroke-miterlimit="10" d="M279.089,382.829
		c0-90.38,128.341-163.648,286.655-163.648c158.315,0,486.649,174.269,486.649,264.649s-328.333,31.674-486.649,31.674
		C407.43,515.504,279.089,473.21,279.089,382.829z"/>
	<path opacity="0.2" fill="none" stroke="#234F59" stroke-miterlimit="10" d="M203.535,399.367
		c58.287-112.824,184.438-369.529,484.427-263.949c261.171,91.917,846.635,290.619,846.635,436.395s-723.531,10.559-991.073,10.559
		C275.983,582.371,143.537,515.503,203.535,399.367z"/>
	
		<line opacity="0.2" fill="none" stroke="#234F59" stroke-miterlimit="10" stroke-dasharray="30,30" x1="3.186" y1="180.59" x2="1603.186" y2="51.124"/>
	
		<line opacity="0.2" fill="none" stroke="#234F59" stroke-miterlimit="10" stroke-dasharray="30,30" x1="3.186" y1="693.414" x2="1603.185" y2="480.045"/>
</g>
</svg>
